<svg width="32" height="32" viewBox="0 0 32 32" fill="none" xmlns="http://www.w3.org/2000/svg">
<g filter="url(#filter0_dd_237_222)">
<rect x="4" y="3" width="24" height="24" rx="12" fill="#5F3E84"/>
<g clip-path="url(#clip0_237_222)">
<path d="M10 14.25H22C22.1989 14.25 22.3897 14.329 22.5303 14.4697C22.671 14.6103 22.75 14.8011 22.75 15V15.375C22.75 16.5 20.8623 19.5548 19.75 20.25V21C19.75 21.1989 19.671 21.3897 19.5303 21.5303C19.3897 21.671 19.1989 21.75 19 21.75H13C12.8011 21.75 12.6103 21.671 12.4697 21.5303C12.329 21.3897 12.25 21.1989 12.25 21V20.25C10.9847 19.4595 9.25 16.5 9.25 15.375V15C9.25 14.8011 9.32902 14.6103 9.46967 14.4697C9.61032 14.329 9.80109 14.25 10 14.25Z" stroke="#F7F6F3" stroke-width="2" stroke-linecap="round" stroke-linejoin="round"/>
<path d="M21.25 11.25L10.75 12" stroke="#F7F6F3" stroke-width="2" stroke-linecap="round" stroke-linejoin="round"/>
<path d="M21.25 7.5L10.75 9.75" stroke="#F7F6F3" stroke-width="2" stroke-linecap="round" stroke-linejoin="round"/>
</g>
</g>
<defs>
<filter id="filter0_dd_237_222" x="0" y="0" width="32" height="32" filterUnits="userSpaceOnUse" color-interpolation-filters="sRGB">
<feFlood flood-opacity="0" result="BackgroundImageFix"/>
<feColorMatrix in="SourceAlpha" type="matrix" values="0 0 0 0 0 0 0 0 0 0 0 0 0 0 0 0 0 0 127 0" result="hardAlpha"/>
<feMorphology radius="1" operator="dilate" in="SourceAlpha" result="effect1_dropShadow_237_222"/>
<feOffset dy="1"/>
<feGaussianBlur stdDeviation="1.5"/>
<feColorMatrix type="matrix" values="0 0 0 0 0 0 0 0 0 0 0 0 0 0 0 0 0 0 0.15 0"/>
<feBlend mode="normal" in2="BackgroundImageFix" result="effect1_dropShadow_237_222"/>
<feColorMatrix in="SourceAlpha" type="matrix" values="0 0 0 0 0 0 0 0 0 0 0 0 0 0 0 0 0 0 127 0" result="hardAlpha"/>
<feOffset dy="1"/>
<feGaussianBlur stdDeviation="1"/>
<feColorMatrix type="matrix" values="0 0 0 0 0 0 0 0 0 0 0 0 0 0 0 0 0 0 0.3 0"/>
<feBlend mode="normal" in2="effect1_dropShadow_237_222" result="effect2_dropShadow_237_222"/>
<feBlend mode="normal" in="SourceGraphic" in2="effect2_dropShadow_237_222" result="shape"/>
</filter>
<clipPath id="clip0_237_222">
<rect width="18" height="18" fill="white" transform="translate(7 6)"/>
</clipPath>
</defs>
</svg>
