<svg width="32" height="32" viewBox="0 0 32 32" fill="none" xmlns="http://www.w3.org/2000/svg">
<g filter="url(#filter0_dd_237_258)">
<rect x="4" y="3" width="24" height="24" rx="12" fill="#D87620"/>
<path d="M14.1249 11.6251L15.2499 14.2501M11.8749 13.8751L12.9999 16.5001M16.3749 9.37514L17.4999 12.0001M11.2209 14.4624L15.4539 10.2346C17.4526 8.23739 19.8969 7.42439 21.9511 9.33089L22.0921 9.46664C22.3006 9.67472 22.4659 9.92186 22.5788 10.1939C22.6916 10.466 22.7497 10.7576 22.7497 11.0521C22.7497 11.3467 22.6916 11.6383 22.5788 11.9104C22.4659 12.1824 22.3006 12.4296 22.0921 12.6376L13.6269 21.0931C13.2234 21.495 12.6825 21.7288 12.1134 21.7476C11.5443 21.7664 10.9892 21.5687 10.5601 21.1944L10.4529 21.0931C8.40686 19.0501 9.17486 16.5054 11.2209 14.4624Z" stroke="#F7F6F3" stroke-width="2" stroke-linecap="round" stroke-linejoin="round"/>
</g>
<defs>
<filter id="filter0_dd_237_258" x="0" y="0" width="32" height="32" filterUnits="userSpaceOnUse" color-interpolation-filters="sRGB">
<feFlood flood-opacity="0" result="BackgroundImageFix"/>
<feColorMatrix in="SourceAlpha" type="matrix" values="0 0 0 0 0 0 0 0 0 0 0 0 0 0 0 0 0 0 127 0" result="hardAlpha"/>
<feMorphology radius="1" operator="dilate" in="SourceAlpha" result="effect1_dropShadow_237_258"/>
<feOffset dy="1"/>
<feGaussianBlur stdDeviation="1.5"/>
<feColorMatrix type="matrix" values="0 0 0 0 0 0 0 0 0 0 0 0 0 0 0 0 0 0 0.15 0"/>
<feBlend mode="normal" in2="BackgroundImageFix" result="effect1_dropShadow_237_258"/>
<feColorMatrix in="SourceAlpha" type="matrix" values="0 0 0 0 0 0 0 0 0 0 0 0 0 0 0 0 0 0 127 0" result="hardAlpha"/>
<feOffset dy="1"/>
<feGaussianBlur stdDeviation="1"/>
<feColorMatrix type="matrix" values="0 0 0 0 0 0 0 0 0 0 0 0 0 0 0 0 0 0 0.3 0"/>
<feBlend mode="normal" in2="effect1_dropShadow_237_258" result="effect2_dropShadow_237_258"/>
<feBlend mode="normal" in="SourceGraphic" in2="effect2_dropShadow_237_258" result="shape"/>
</filter>
</defs>
</svg>
