<svg width="40" height="40" viewBox="0 0 40 40" fill="none" xmlns="http://www.w3.org/2000/svg">
<g filter="url(#filter0_dd_237_262)">
<rect x="4" y="3" width="32" height="32" rx="16" fill="#935016"/>
<path d="M17.5 14.5002L19 18.0002M14.5 17.5002L16 21.0002M20.5 11.5002L22 15.0002M13.628 18.2832L19.272 12.6462C21.937 9.98319 25.196 8.89919 27.935 11.4412L28.123 11.6222C28.4009 11.8996 28.6214 12.2291 28.7718 12.5919C28.9223 12.9546 28.9997 13.3435 28.9997 13.7362C28.9997 14.1289 28.9223 14.5177 28.7718 14.8805C28.6214 15.2432 28.4009 15.5728 28.123 15.8502L16.836 27.1242C16.298 27.6599 15.5769 27.9718 14.8181 27.9968C14.0592 28.0219 13.3191 27.7583 12.747 27.2592L12.604 27.1242C9.87597 24.4002 10.9 21.0072 13.628 18.2832Z" stroke="#F7F6F3" stroke-width="2" stroke-linecap="round" stroke-linejoin="round"/>
</g>
<defs>
<filter id="filter0_dd_237_262" x="0" y="0" width="40" height="40" filterUnits="userSpaceOnUse" color-interpolation-filters="sRGB">
<feFlood flood-opacity="0" result="BackgroundImageFix"/>
<feColorMatrix in="SourceAlpha" type="matrix" values="0 0 0 0 0 0 0 0 0 0 0 0 0 0 0 0 0 0 127 0" result="hardAlpha"/>
<feMorphology radius="1" operator="dilate" in="SourceAlpha" result="effect1_dropShadow_237_262"/>
<feOffset dy="1"/>
<feGaussianBlur stdDeviation="1.5"/>
<feColorMatrix type="matrix" values="0 0 0 0 0 0 0 0 0 0 0 0 0 0 0 0 0 0 0.15 0"/>
<feBlend mode="normal" in2="BackgroundImageFix" result="effect1_dropShadow_237_262"/>
<feColorMatrix in="SourceAlpha" type="matrix" values="0 0 0 0 0 0 0 0 0 0 0 0 0 0 0 0 0 0 127 0" result="hardAlpha"/>
<feOffset dy="1"/>
<feGaussianBlur stdDeviation="1"/>
<feColorMatrix type="matrix" values="0 0 0 0 0 0 0 0 0 0 0 0 0 0 0 0 0 0 0.3 0"/>
<feBlend mode="normal" in2="effect1_dropShadow_237_262" result="effect2_dropShadow_237_262"/>
<feBlend mode="normal" in="SourceGraphic" in2="effect2_dropShadow_237_262" result="shape"/>
</filter>
</defs>
</svg>
