<svg width="32" height="32" viewBox="0 0 32 32" fill="none" xmlns="http://www.w3.org/2000/svg">
<g filter="url(#filter0_dd_237_315)">
<rect x="4" y="3" width="24" height="24" rx="12" fill="#428BCA"/>
<g clip-path="url(#clip0_237_315)">
<path d="M8.5 15H23.5" stroke="#F7F6F3" stroke-width="2" stroke-linecap="round" stroke-linejoin="round"/>
<path d="M22 15V21C22 21.3978 21.842 21.7794 21.5607 22.0607C21.2794 22.342 20.8978 22.5 20.5 22.5H11.5C11.1022 22.5 10.7206 22.342 10.4393 22.0607C10.158 21.7794 10 21.3978 10 21V15" stroke="#F7F6F3" stroke-width="2" stroke-linecap="round" stroke-linejoin="round"/>
<path d="M10 12L22 9" stroke="#F7F6F3" stroke-width="2" stroke-linecap="round" stroke-linejoin="round"/>
<path d="M13.6451 11.0849L13.3076 9.72741C13.2592 9.53633 13.249 9.3376 13.2775 9.14257C13.306 8.94754 13.3726 8.76004 13.4736 8.59078C13.5746 8.42153 13.708 8.27383 13.8661 8.15615C14.0242 8.03846 14.2039 7.95309 14.3951 7.90491L15.8501 7.54491C16.0416 7.49667 16.2409 7.48676 16.4363 7.51573C16.6317 7.5447 16.8195 7.61199 16.9888 7.71374C17.1582 7.81549 17.3057 7.94968 17.4231 8.10862C17.5404 8.26756 17.6252 8.44811 17.6726 8.63991L18.0101 9.98991" stroke="#F7F6F3" stroke-width="2" stroke-linecap="round" stroke-linejoin="round"/>
</g>
</g>
<defs>
<filter id="filter0_dd_237_315" x="0" y="0" width="32" height="32" filterUnits="userSpaceOnUse" color-interpolation-filters="sRGB">
<feFlood flood-opacity="0" result="BackgroundImageFix"/>
<feColorMatrix in="SourceAlpha" type="matrix" values="0 0 0 0 0 0 0 0 0 0 0 0 0 0 0 0 0 0 127 0" result="hardAlpha"/>
<feMorphology radius="1" operator="dilate" in="SourceAlpha" result="effect1_dropShadow_237_315"/>
<feOffset dy="1"/>
<feGaussianBlur stdDeviation="1.5"/>
<feColorMatrix type="matrix" values="0 0 0 0 0 0 0 0 0 0 0 0 0 0 0 0 0 0 0.15 0"/>
<feBlend mode="normal" in2="BackgroundImageFix" result="effect1_dropShadow_237_315"/>
<feColorMatrix in="SourceAlpha" type="matrix" values="0 0 0 0 0 0 0 0 0 0 0 0 0 0 0 0 0 0 127 0" result="hardAlpha"/>
<feOffset dy="1"/>
<feGaussianBlur stdDeviation="1"/>
<feColorMatrix type="matrix" values="0 0 0 0 0 0 0 0 0 0 0 0 0 0 0 0 0 0 0.3 0"/>
<feBlend mode="normal" in2="effect1_dropShadow_237_315" result="effect2_dropShadow_237_315"/>
<feBlend mode="normal" in="SourceGraphic" in2="effect2_dropShadow_237_315" result="shape"/>
</filter>
<clipPath id="clip0_237_315">
<rect width="18" height="18" fill="white" transform="translate(7 6)"/>
</clipPath>
</defs>
</svg>
