<svg width="32" height="32" viewBox="0 0 32 32" fill="none" xmlns="http://www.w3.org/2000/svg">
<g filter="url(#filter0_dd_237_284)">
<rect x="4" y="3" width="24" height="24" rx="12" fill="#EB5757"/>
<path d="M16 21.75C17.7902 21.75 19.5071 21.0388 20.773 19.773C22.0388 18.5071 22.75 16.7902 22.75 15H9.25C9.25 16.7902 9.96116 18.5071 11.227 19.773C12.4929 21.0388 14.2098 21.75 16 21.75Z" stroke="#F7F6F3" stroke-width="2" stroke-linecap="round" stroke-linejoin="round"/>
<path d="M12.25 21.75H19.75" stroke="#F7F6F3" stroke-width="2" stroke-linecap="round" stroke-linejoin="round"/>
<path d="M21.625 15L23.5 10.5" stroke="#F7F6F3" stroke-width="2" stroke-linecap="round" stroke-linejoin="round"/>
<path d="M19.1873 8.25C19.3898 8.325 19.7873 8.6475 19.7498 9.27C19.7048 9.8925 19.0523 10.17 18.9998 10.785C18.9623 11.37 19.2548 11.715 19.5473 12" stroke="#F7F6F3" stroke-width="2" stroke-linecap="round" stroke-linejoin="round"/>
<path d="M15.4375 8.25C15.64 8.325 16.0375 8.6475 15.9925 9.27C15.955 9.8925 15.295 10.17 15.2575 10.785C15.2125 11.37 15.505 11.715 15.7975 12" stroke="#F7F6F3" stroke-width="2" stroke-linecap="round" stroke-linejoin="round"/>
<path d="M11.6873 8.25C11.8898 8.325 12.2873 8.6475 12.2498 9.27C12.2048 9.8925 11.5523 10.17 11.4998 10.785C11.4623 11.37 11.7548 11.715 12.0548 12" stroke="#F7F6F3" stroke-width="2" stroke-linecap="round" stroke-linejoin="round"/>
</g>
<defs>
<filter id="filter0_dd_237_284" x="0" y="0" width="32" height="32" filterUnits="userSpaceOnUse" color-interpolation-filters="sRGB">
<feFlood flood-opacity="0" result="BackgroundImageFix"/>
<feColorMatrix in="SourceAlpha" type="matrix" values="0 0 0 0 0 0 0 0 0 0 0 0 0 0 0 0 0 0 127 0" result="hardAlpha"/>
<feMorphology radius="1" operator="dilate" in="SourceAlpha" result="effect1_dropShadow_237_284"/>
<feOffset dy="1"/>
<feGaussianBlur stdDeviation="1.5"/>
<feColorMatrix type="matrix" values="0 0 0 0 0 0 0 0 0 0 0 0 0 0 0 0 0 0 0.15 0"/>
<feBlend mode="normal" in2="BackgroundImageFix" result="effect1_dropShadow_237_284"/>
<feColorMatrix in="SourceAlpha" type="matrix" values="0 0 0 0 0 0 0 0 0 0 0 0 0 0 0 0 0 0 127 0" result="hardAlpha"/>
<feOffset dy="1"/>
<feGaussianBlur stdDeviation="1"/>
<feColorMatrix type="matrix" values="0 0 0 0 0 0 0 0 0 0 0 0 0 0 0 0 0 0 0.3 0"/>
<feBlend mode="normal" in2="effect1_dropShadow_237_284" result="effect2_dropShadow_237_284"/>
<feBlend mode="normal" in="SourceGraphic" in2="effect2_dropShadow_237_284" result="shape"/>
</filter>
</defs>
</svg>
