<svg width="32" height="32" viewBox="0 0 32 32" fill="none" xmlns="http://www.w3.org/2000/svg">
<g filter="url(#filter0_dd_218_654)">
<rect x="4" y="3" width="24" height="24" rx="12" fill="#CD4945"/>
<g clip-path="url(#clip0_218_654)">
<path d="M17.2148 12.2866L18.6893 10.8113C18.5149 10.6369 18.3862 10.4222 18.3145 10.1862C18.2429 9.95012 18.2305 9.70006 18.2786 9.45813C18.3267 9.21619 18.4337 8.98984 18.5901 8.79913C18.7466 8.60842 18.9476 8.45924 19.1755 8.36479C19.4034 8.27035 19.651 8.23356 19.8965 8.25768C20.142 8.2818 20.3778 8.36608 20.5829 8.50307C20.788 8.64006 20.9562 8.82553 21.0725 9.04304C21.1889 9.26055 21.2498 9.50339 21.2498 9.75006C21.4966 9.74988 21.7395 9.81057 21.9572 9.92675C22.1749 10.0429 22.3605 10.211 22.4977 10.4161C22.6349 10.6212 22.7194 10.8569 22.7436 11.1025C22.7679 11.348 22.7313 11.5957 22.6369 11.8237C22.5425 12.0517 22.3934 12.2529 22.2027 12.4094C22.012 12.566 21.7856 12.6731 21.5436 12.7212C21.3017 12.7694 21.0515 12.7571 20.8154 12.6855C20.5793 12.6138 20.3645 12.4851 20.1901 12.3106L18.8251 13.6763" stroke="#F7F6F3" stroke-width="1.5" stroke-linecap="round" stroke-linejoin="round"/>
<path d="M11.4278 19.947C13.4776 21.9975 15.8528 22.947 16.7303 22.0688C17.6093 21.1898 16.6598 18.8153 14.6093 16.7655C12.5596 14.715 10.1843 13.7655 9.30682 14.6438C8.42782 15.5228 9.37732 17.8973 11.4278 19.947Z" stroke="#F7F6F3" stroke-width="1.5" stroke-linecap="round" stroke-linejoin="round"/>
<path d="M12.625 18L13.375 18.75" stroke="#F7F6F3" stroke-width="1.5" stroke-linecap="round" stroke-linejoin="round"/>
<path d="M16.7314 22.069C19.6601 19.1395 20.3726 15.103 18.3221 13.0532C16.2724 11.0027 12.2359 11.7152 9.30713 14.644" stroke="#F7F6F3" stroke-width="2" stroke-linecap="round" stroke-linejoin="round"/>
</g>
</g>
<defs>
<filter id="filter0_dd_218_654" x="0" y="0" width="32" height="32" filterUnits="userSpaceOnUse" color-interpolation-filters="sRGB">
<feFlood flood-opacity="0" result="BackgroundImageFix"/>
<feColorMatrix in="SourceAlpha" type="matrix" values="0 0 0 0 0 0 0 0 0 0 0 0 0 0 0 0 0 0 127 0" result="hardAlpha"/>
<feMorphology radius="1" operator="dilate" in="SourceAlpha" result="effect1_dropShadow_218_654"/>
<feOffset dy="1"/>
<feGaussianBlur stdDeviation="1.5"/>
<feColorMatrix type="matrix" values="0 0 0 0 0 0 0 0 0 0 0 0 0 0 0 0 0 0 0.15 0"/>
<feBlend mode="normal" in2="BackgroundImageFix" result="effect1_dropShadow_218_654"/>
<feColorMatrix in="SourceAlpha" type="matrix" values="0 0 0 0 0 0 0 0 0 0 0 0 0 0 0 0 0 0 127 0" result="hardAlpha"/>
<feOffset dy="1"/>
<feGaussianBlur stdDeviation="1"/>
<feColorMatrix type="matrix" values="0 0 0 0 0 0 0 0 0 0 0 0 0 0 0 0 0 0 0.3 0"/>
<feBlend mode="normal" in2="effect1_dropShadow_218_654" result="effect2_dropShadow_218_654"/>
<feBlend mode="normal" in="SourceGraphic" in2="effect2_dropShadow_218_654" result="shape"/>
</filter>
<clipPath id="clip0_218_654">
<rect width="18" height="18" fill="white" transform="translate(7 6)"/>
</clipPath>
</defs>
</svg>
