<svg width="32" height="32" viewBox="0 0 32 32" fill="none" xmlns="http://www.w3.org/2000/svg">
<g filter="url(#filter0_dd_237_130)">
<rect x="4" y="3" width="24" height="24" rx="12" fill="#935016"/>
<g clip-path="url(#clip0_237_130)">
<path d="M16.75 14.25C16.75 15.9075 15.0707 17.25 13 17.25C10.9293 17.25 9.25 15.9075 9.25 14.25C9.25 15.8413 9.88214 17.3674 11.0074 18.4926C12.1326 19.6179 13.6587 20.25 15.25 20.25C16.8413 20.25 18.3674 19.6179 19.4926 18.4926C20.6179 17.3674 21.25 15.8413 21.25 14.25C21.25 13.6533 21.0129 13.081 20.591 12.659C20.169 12.2371 19.5967 12 19 12C18.4033 12 17.831 12.2371 17.409 12.659C16.9871 13.081 16.75 13.6533 16.75 14.25Z" stroke="#F7F6F3" stroke-width="1.5" stroke-linecap="round" stroke-linejoin="round"/>
<path d="M19 12C19 10.5 20.5 9 22 9" stroke="#F7F6F3" stroke-width="2" stroke-linecap="round" stroke-linejoin="round"/>
</g>
</g>
<defs>
<filter id="filter0_dd_237_130" x="0" y="0" width="32" height="32" filterUnits="userSpaceOnUse" color-interpolation-filters="sRGB">
<feFlood flood-opacity="0" result="BackgroundImageFix"/>
<feColorMatrix in="SourceAlpha" type="matrix" values="0 0 0 0 0 0 0 0 0 0 0 0 0 0 0 0 0 0 127 0" result="hardAlpha"/>
<feMorphology radius="1" operator="dilate" in="SourceAlpha" result="effect1_dropShadow_237_130"/>
<feOffset dy="1"/>
<feGaussianBlur stdDeviation="1.5"/>
<feColorMatrix type="matrix" values="0 0 0 0 0 0 0 0 0 0 0 0 0 0 0 0 0 0 0.15 0"/>
<feBlend mode="normal" in2="BackgroundImageFix" result="effect1_dropShadow_237_130"/>
<feColorMatrix in="SourceAlpha" type="matrix" values="0 0 0 0 0 0 0 0 0 0 0 0 0 0 0 0 0 0 127 0" result="hardAlpha"/>
<feOffset dy="1"/>
<feGaussianBlur stdDeviation="1"/>
<feColorMatrix type="matrix" values="0 0 0 0 0 0 0 0 0 0 0 0 0 0 0 0 0 0 0.3 0"/>
<feBlend mode="normal" in2="effect1_dropShadow_237_130" result="effect2_dropShadow_237_130"/>
<feBlend mode="normal" in="SourceGraphic" in2="effect2_dropShadow_237_130" result="shape"/>
</filter>
<clipPath id="clip0_237_130">
<rect width="18" height="18" fill="white" transform="translate(7 6)"/>
</clipPath>
</defs>
</svg>
