<svg width="32" height="32" viewBox="0 0 32 32" fill="none" xmlns="http://www.w3.org/2000/svg">
<g filter="url(#filter0_dd_298_529)">
<rect x="4" y="3" width="24" height="24" rx="12" fill="#2C9964"/>
<g clip-path="url(#clip0_298_529)">
<mask id="path-2-inside-1_298_529" fill="white">
<path d="M10.753 13.6718L10.7507 13.5323L10.7515 13.4475L10.7575 13.3943L11.5075 8.14425C11.5308 7.97984 11.6081 7.82783 11.7271 7.71206C11.8461 7.59628 12.0002 7.52328 12.1652 7.5045L12.25 7.5H19.75C19.9159 7.49991 20.0772 7.55486 20.2086 7.65624C20.34 7.75762 20.434 7.89971 20.476 8.06025L20.4925 8.14425L21.247 13.4318L21.25 13.5C21.25 15.9195 19.33 17.673 16.75 17.9587V21H19C19.1911 21.0002 19.375 21.0734 19.514 21.2046C19.653 21.3359 19.7367 21.5152 19.7479 21.706C19.7591 21.8969 19.697 22.0848 19.5743 22.2314C19.4516 22.378 19.2776 22.4722 19.0877 22.4948L19 22.5H13C12.8088 22.4998 12.625 22.4266 12.486 22.2954C12.347 22.1641 12.2633 21.9848 12.2521 21.794C12.2409 21.6031 12.303 21.4152 12.4257 21.2686C12.5484 21.122 12.7224 21.0278 12.9122 21.0052L13 21H15.25V17.9587C12.7315 17.6805 10.8415 16.002 10.753 13.6718ZM19.0997 9H12.8995L12.4442 12.1935C13.0883 11.9982 13.7679 11.9499 14.4331 12.0521C15.0984 12.1542 15.7322 12.4042 16.288 12.7838L16.45 12.9C16.9107 13.2457 17.4612 13.4515 18.0358 13.4927C18.6103 13.5339 19.1846 13.4089 19.69 13.1325L19.0997 9Z"/>
</mask>
<path d="M10.753 13.6718L10.7507 13.5323L10.7515 13.4475L10.7575 13.3943L11.5075 8.14425C11.5308 7.97984 11.6081 7.82783 11.7271 7.71206C11.8461 7.59628 12.0002 7.52328 12.1652 7.5045L12.25 7.5H19.75C19.9159 7.49991 20.0772 7.55486 20.2086 7.65624C20.34 7.75762 20.434 7.89971 20.476 8.06025L20.4925 8.14425L21.247 13.4318L21.25 13.5C21.25 15.9195 19.33 17.673 16.75 17.9587V21H19C19.1911 21.0002 19.375 21.0734 19.514 21.2046C19.653 21.3359 19.7367 21.5152 19.7479 21.706C19.7591 21.8969 19.697 22.0848 19.5743 22.2314C19.4516 22.378 19.2776 22.4722 19.0877 22.4948L19 22.5H13C12.8088 22.4998 12.625 22.4266 12.486 22.2954C12.347 22.1641 12.2633 21.9848 12.2521 21.794C12.2409 21.6031 12.303 21.4152 12.4257 21.2686C12.5484 21.122 12.7224 21.0278 12.9122 21.0052L13 21H15.25V17.9587C12.7315 17.6805 10.8415 16.002 10.753 13.6718ZM19.0997 9H12.8995L12.4442 12.1935C13.0883 11.9982 13.7679 11.9499 14.4331 12.0521C15.0984 12.1542 15.7322 12.4042 16.288 12.7838L16.45 12.9C16.9107 13.2457 17.4612 13.4515 18.0358 13.4927C18.6103 13.5339 19.1846 13.4089 19.69 13.1325L19.0997 9Z" stroke="#F7F6F3" stroke-width="3" mask="url(#path-2-inside-1_298_529)"/>
</g>
</g>
<defs>
<filter id="filter0_dd_298_529" x="0" y="0" width="32" height="32" filterUnits="userSpaceOnUse" color-interpolation-filters="sRGB">
<feFlood flood-opacity="0" result="BackgroundImageFix"/>
<feColorMatrix in="SourceAlpha" type="matrix" values="0 0 0 0 0 0 0 0 0 0 0 0 0 0 0 0 0 0 127 0" result="hardAlpha"/>
<feMorphology radius="1" operator="dilate" in="SourceAlpha" result="effect1_dropShadow_298_529"/>
<feOffset dy="1"/>
<feGaussianBlur stdDeviation="1.5"/>
<feColorMatrix type="matrix" values="0 0 0 0 0 0 0 0 0 0 0 0 0 0 0 0 0 0 0.15 0"/>
<feBlend mode="normal" in2="BackgroundImageFix" result="effect1_dropShadow_298_529"/>
<feColorMatrix in="SourceAlpha" type="matrix" values="0 0 0 0 0 0 0 0 0 0 0 0 0 0 0 0 0 0 127 0" result="hardAlpha"/>
<feOffset dy="1"/>
<feGaussianBlur stdDeviation="1"/>
<feColorMatrix type="matrix" values="0 0 0 0 0 0 0 0 0 0 0 0 0 0 0 0 0 0 0.3 0"/>
<feBlend mode="normal" in2="effect1_dropShadow_298_529" result="effect2_dropShadow_298_529"/>
<feBlend mode="normal" in="SourceGraphic" in2="effect2_dropShadow_298_529" result="shape"/>
</filter>
<clipPath id="clip0_298_529">
<rect width="18" height="18" fill="white" transform="translate(7 6)"/>
</clipPath>
</defs>
</svg>
