<svg width="40" height="40" viewBox="0 0 40 40" fill="none" xmlns="http://www.w3.org/2000/svg">
<g filter="url(#filter0_dd_218_747)">
<rect x="4" y="3" width="32" height="32" rx="16" fill="#1E6944"/>
<path d="M13.004 17.229L13.001 17.043L13.002 16.93L13.01 16.859L14.01 9.859C14.0411 9.63979 14.1441 9.43711 14.3028 9.28274C14.4615 9.12837 14.667 9.03103 14.887 9.006L15 9H25C25.2212 8.99988 25.4363 9.07315 25.6114 9.20832C25.7866 9.34349 25.912 9.53294 25.968 9.747L25.99 9.859L26.996 16.909L27 17C27 20.226 24.44 22.564 21 22.945V27H24C24.2549 27.0003 24.5 27.0979 24.6853 27.2728C24.8707 27.4478 24.9822 27.687 24.9971 27.9414C25.0121 28.1958 24.9293 28.4464 24.7657 28.6418C24.6021 28.8373 24.3701 28.9629 24.117 28.993L24 29H16C15.7451 28.9997 15.4999 28.9021 15.3146 28.7272C15.1293 28.5522 15.0177 28.313 15.0028 28.0586C14.9879 27.8042 15.0707 27.5536 15.2342 27.3582C15.3978 27.1627 15.6299 27.0371 15.883 27.007L16 27H19V22.945C15.642 22.574 13.122 20.336 13.004 17.229ZM24.133 11H15.866L15.259 15.258C16.1177 14.9977 17.0239 14.9332 17.9109 15.0694C18.7978 15.2056 19.6429 15.539 20.384 16.045L20.6 16.2C21.2143 16.661 21.9483 16.9353 22.7144 16.9903C23.4804 17.0452 24.2461 16.8785 24.92 16.51L24.133 11Z" fill="#F7F6F3"/>
</g>
<defs>
<filter id="filter0_dd_218_747" x="0" y="0" width="40" height="40" filterUnits="userSpaceOnUse" color-interpolation-filters="sRGB">
<feFlood flood-opacity="0" result="BackgroundImageFix"/>
<feColorMatrix in="SourceAlpha" type="matrix" values="0 0 0 0 0 0 0 0 0 0 0 0 0 0 0 0 0 0 127 0" result="hardAlpha"/>
<feMorphology radius="1" operator="dilate" in="SourceAlpha" result="effect1_dropShadow_218_747"/>
<feOffset dy="1"/>
<feGaussianBlur stdDeviation="1.5"/>
<feColorMatrix type="matrix" values="0 0 0 0 0 0 0 0 0 0 0 0 0 0 0 0 0 0 0.15 0"/>
<feBlend mode="normal" in2="BackgroundImageFix" result="effect1_dropShadow_218_747"/>
<feColorMatrix in="SourceAlpha" type="matrix" values="0 0 0 0 0 0 0 0 0 0 0 0 0 0 0 0 0 0 127 0" result="hardAlpha"/>
<feOffset dy="1"/>
<feGaussianBlur stdDeviation="1"/>
<feColorMatrix type="matrix" values="0 0 0 0 0 0 0 0 0 0 0 0 0 0 0 0 0 0 0.3 0"/>
<feBlend mode="normal" in2="effect1_dropShadow_218_747" result="effect2_dropShadow_218_747"/>
<feBlend mode="normal" in="SourceGraphic" in2="effect2_dropShadow_218_747" result="shape"/>
</filter>
</defs>
</svg>
