<svg width="32" height="32" viewBox="0 0 32 32" fill="none" xmlns="http://www.w3.org/2000/svg">
<g filter="url(#filter0_dd_218_747)">
<rect x="4" y="3" width="24" height="24" rx="12" fill="#1E6944"/>
<g clip-path="url(#clip0_218_747)">
<mask id="path-2-inside-1_218_747" fill="white">
<path d="M10.7532 13.6718L10.751 13.5323L10.7517 13.4475L10.7577 13.3942L11.5077 8.14425C11.5311 7.97984 11.6083 7.82783 11.7274 7.71206C11.8464 7.59628 12.0005 7.52328 12.1655 7.5045L12.2502 7.5H19.7502C19.9162 7.49991 20.0775 7.55486 20.2088 7.65624C20.3402 7.75762 20.4342 7.89971 20.4762 8.06025L20.4927 8.14425L21.2472 13.4318L21.2502 13.5C21.2502 15.9195 19.3302 17.673 16.7502 17.9587V21H19.0002C19.1914 21.0002 19.3753 21.0734 19.5143 21.2046C19.6533 21.3359 19.7369 21.5152 19.7481 21.706C19.7593 21.8969 19.6972 22.0848 19.5745 22.2314C19.4518 22.378 19.2778 22.4722 19.088 22.4948L19.0002 22.5H13.0002C12.8091 22.4998 12.6252 22.4266 12.4862 22.2954C12.3472 22.1641 12.2636 21.9848 12.2523 21.794C12.2411 21.6031 12.3032 21.4152 12.4259 21.2686C12.5486 21.122 12.7227 21.0278 12.9125 21.0052L13.0002 21H15.2502V17.9587C12.7317 17.6805 10.8417 16.002 10.7532 13.6718ZM19.1 9H12.8997L12.4445 12.1935C13.0885 11.9982 13.7682 11.9499 14.4334 12.0521C15.0986 12.1542 15.7324 12.4042 16.2882 12.7838L16.4502 12.9C16.911 13.2457 17.4615 13.4515 18.036 13.4927C18.6106 13.5339 19.1848 13.4089 19.6902 13.1325L19.1 9Z"/>
</mask>
<path d="M10.7532 13.6718L10.751 13.5323L10.7517 13.4475L10.7577 13.3942L11.5077 8.14425C11.5311 7.97984 11.6083 7.82783 11.7274 7.71206C11.8464 7.59628 12.0005 7.52328 12.1655 7.5045L12.2502 7.5H19.7502C19.9162 7.49991 20.0775 7.55486 20.2088 7.65624C20.3402 7.75762 20.4342 7.89971 20.4762 8.06025L20.4927 8.14425L21.2472 13.4318L21.2502 13.5C21.2502 15.9195 19.3302 17.673 16.7502 17.9587V21H19.0002C19.1914 21.0002 19.3753 21.0734 19.5143 21.2046C19.6533 21.3359 19.7369 21.5152 19.7481 21.706C19.7593 21.8969 19.6972 22.0848 19.5745 22.2314C19.4518 22.378 19.2778 22.4722 19.088 22.4948L19.0002 22.5H13.0002C12.8091 22.4998 12.6252 22.4266 12.4862 22.2954C12.3472 22.1641 12.2636 21.9848 12.2523 21.794C12.2411 21.6031 12.3032 21.4152 12.4259 21.2686C12.5486 21.122 12.7227 21.0278 12.9125 21.0052L13.0002 21H15.2502V17.9587C12.7317 17.6805 10.8417 16.002 10.7532 13.6718ZM19.1 9H12.8997L12.4445 12.1935C13.0885 11.9982 13.7682 11.9499 14.4334 12.0521C15.0986 12.1542 15.7324 12.4042 16.2882 12.7838L16.4502 12.9C16.911 13.2457 17.4615 13.4515 18.036 13.4927C18.6106 13.5339 19.1848 13.4089 19.6902 13.1325L19.1 9Z" stroke="#F7F6F3" stroke-width="3" mask="url(#path-2-inside-1_218_747)"/>
</g>
</g>
<defs>
<filter id="filter0_dd_218_747" x="0" y="0" width="32" height="32" filterUnits="userSpaceOnUse" color-interpolation-filters="sRGB">
<feFlood flood-opacity="0" result="BackgroundImageFix"/>
<feColorMatrix in="SourceAlpha" type="matrix" values="0 0 0 0 0 0 0 0 0 0 0 0 0 0 0 0 0 0 127 0" result="hardAlpha"/>
<feMorphology radius="1" operator="dilate" in="SourceAlpha" result="effect1_dropShadow_218_747"/>
<feOffset dy="1"/>
<feGaussianBlur stdDeviation="1.5"/>
<feColorMatrix type="matrix" values="0 0 0 0 0 0 0 0 0 0 0 0 0 0 0 0 0 0 0.15 0"/>
<feBlend mode="normal" in2="BackgroundImageFix" result="effect1_dropShadow_218_747"/>
<feColorMatrix in="SourceAlpha" type="matrix" values="0 0 0 0 0 0 0 0 0 0 0 0 0 0 0 0 0 0 127 0" result="hardAlpha"/>
<feOffset dy="1"/>
<feGaussianBlur stdDeviation="1"/>
<feColorMatrix type="matrix" values="0 0 0 0 0 0 0 0 0 0 0 0 0 0 0 0 0 0 0.3 0"/>
<feBlend mode="normal" in2="effect1_dropShadow_218_747" result="effect2_dropShadow_218_747"/>
<feBlend mode="normal" in="SourceGraphic" in2="effect2_dropShadow_218_747" result="shape"/>
</filter>
<clipPath id="clip0_218_747">
<rect width="18" height="18" fill="white" transform="translate(7 6)"/>
</clipPath>
</defs>
</svg>
