<svg width="32" height="32" viewBox="0 0 32 32" fill="none" xmlns="http://www.w3.org/2000/svg">
<g filter="url(#filter0_dd_265_450)">
<rect x="4" y="3" width="24" height="24" rx="12" fill="#C94079"/>
<g clip-path="url(#clip0_265_450)">
<path d="M21.25 17.25V8.25C17.638 11.6955 17.4827 14.4893 17.5 17.25H21.25ZM21.25 17.25V21.75H20.5V19.5M13 9V21.75M10.75 9V11.25C10.75 11.8467 10.9871 12.419 11.409 12.841C11.831 13.2629 12.4033 13.5 13 13.5C13.5967 13.5 14.169 13.2629 14.591 12.841C15.0129 12.419 15.25 11.8467 15.25 11.25V9" stroke="#F7F6F3" stroke-width="1.5" stroke-linecap="round" stroke-linejoin="round"/>
</g>
</g>
<defs>
<filter id="filter0_dd_265_450" x="0" y="0" width="32" height="32" filterUnits="userSpaceOnUse" color-interpolation-filters="sRGB">
<feFlood flood-opacity="0" result="BackgroundImageFix"/>
<feColorMatrix in="SourceAlpha" type="matrix" values="0 0 0 0 0 0 0 0 0 0 0 0 0 0 0 0 0 0 127 0" result="hardAlpha"/>
<feMorphology radius="1" operator="dilate" in="SourceAlpha" result="effect1_dropShadow_265_450"/>
<feOffset dy="1"/>
<feGaussianBlur stdDeviation="1.5"/>
<feColorMatrix type="matrix" values="0 0 0 0 0 0 0 0 0 0 0 0 0 0 0 0 0 0 0.15 0"/>
<feBlend mode="normal" in2="BackgroundImageFix" result="effect1_dropShadow_265_450"/>
<feColorMatrix in="SourceAlpha" type="matrix" values="0 0 0 0 0 0 0 0 0 0 0 0 0 0 0 0 0 0 127 0" result="hardAlpha"/>
<feOffset dy="1"/>
<feGaussianBlur stdDeviation="1"/>
<feColorMatrix type="matrix" values="0 0 0 0 0 0 0 0 0 0 0 0 0 0 0 0 0 0 0.3 0"/>
<feBlend mode="normal" in2="effect1_dropShadow_265_450" result="effect2_dropShadow_265_450"/>
<feBlend mode="normal" in="SourceGraphic" in2="effect2_dropShadow_265_450" result="shape"/>
</filter>
<clipPath id="clip0_265_450">
<rect width="18" height="18" fill="white" transform="translate(7 6)"/>
</clipPath>
</defs>
</svg>
