<svg width="32" height="32" viewBox="0 0 32 32" fill="none" xmlns="http://www.w3.org/2000/svg">
<g filter="url(#filter0_dd_237_237)">
<rect x="4" y="3" width="24" height="24" rx="12" fill="#D87620"/>
<path d="M9.93459 11.598L9.91595 11.15H10.1219H16.2812H16.475V16.6H15.1562C12.3422 16.6 10.0502 14.3767 9.93459 11.598ZM17.6 20.7981V22.225H15.7188C15.6102 22.225 15.525 22.1398 15.525 22.0312C15.525 21.9334 15.5991 21.8538 15.6853 21.8418L15.8135 20.5856L15.6553 20.5294L15.6533 20.5287C15.5511 20.4927 15.4988 20.3812 15.5338 20.2818C15.5698 20.1796 15.6813 20.1274 15.7807 20.1623L15.7821 20.1628L17.6 20.7981ZM20.025 21.0669L21.3658 21.6032C20.9474 21.821 20.4979 21.9868 20.025 22.0924V21.0669ZM24.35 16.6875C24.35 17.8426 23.9965 18.9131 23.3925 19.8008L21.1495 18.9036C21.1498 18.888 21.15 18.8724 21.15 18.8566C21.15 18.8363 21.1497 18.816 21.1492 18.7956L24.3489 16.5775C24.3496 16.6141 24.35 16.6508 24.35 16.6875ZM18.9 16.6V11.1507C20.9765 11.1829 22.7774 12.3592 23.6981 14.0801L19.7893 16.7854C19.5171 16.6679 19.2162 16.6009 18.9 16.6Z" stroke="#F7F6F3" stroke-width="1.3"/>
<ellipse cx="14.7141" cy="12.8571" rx="0.857143" ry="0.857143" fill="#F7F6F3"/>
</g>
<defs>
<filter id="filter0_dd_237_237" x="0" y="0" width="32" height="32" filterUnits="userSpaceOnUse" color-interpolation-filters="sRGB">
<feFlood flood-opacity="0" result="BackgroundImageFix"/>
<feColorMatrix in="SourceAlpha" type="matrix" values="0 0 0 0 0 0 0 0 0 0 0 0 0 0 0 0 0 0 127 0" result="hardAlpha"/>
<feMorphology radius="1" operator="dilate" in="SourceAlpha" result="effect1_dropShadow_237_237"/>
<feOffset dy="1"/>
<feGaussianBlur stdDeviation="1.5"/>
<feColorMatrix type="matrix" values="0 0 0 0 0 0 0 0 0 0 0 0 0 0 0 0 0 0 0.15 0"/>
<feBlend mode="normal" in2="BackgroundImageFix" result="effect1_dropShadow_237_237"/>
<feColorMatrix in="SourceAlpha" type="matrix" values="0 0 0 0 0 0 0 0 0 0 0 0 0 0 0 0 0 0 127 0" result="hardAlpha"/>
<feOffset dy="1"/>
<feGaussianBlur stdDeviation="1"/>
<feColorMatrix type="matrix" values="0 0 0 0 0 0 0 0 0 0 0 0 0 0 0 0 0 0 0.3 0"/>
<feBlend mode="normal" in2="effect1_dropShadow_237_237" result="effect2_dropShadow_237_237"/>
<feBlend mode="normal" in="SourceGraphic" in2="effect2_dropShadow_237_237" result="shape"/>
</filter>
</defs>
</svg>
