<svg width="32" height="32" viewBox="0 0 32 32" fill="none" xmlns="http://www.w3.org/2000/svg">
<g filter="url(#filter0_dd_237_344)">
<rect x="4" y="3" width="24" height="24" rx="12" fill="#C94079"/>
<path d="M17.5 14.2499C17.5 14.6478 17.342 15.0293 17.0607 15.3106C16.7794 15.5919 16.3978 15.7499 16 15.7499C15.6022 15.7499 15.2207 15.5919 14.9393 15.3106C14.658 15.0293 14.5 14.6478 14.5 14.2499C14.5 13.4543 14.8161 12.6912 15.3787 12.1286C15.9413 11.566 16.7044 11.2499 17.5 11.2499C18.2957 11.2499 19.0587 11.566 19.6213 12.1286C20.1839 12.6912 20.5 13.4543 20.5 14.2499C20.5 15.4434 20.0259 16.588 19.182 17.4319C18.3381 18.2758 17.1935 18.7499 16 18.7499C14.8065 18.7499 13.6619 18.2758 12.818 17.4319C11.9741 16.588 11.5 15.4434 11.5 14.2499C11.5 12.6586 12.1321 11.1325 13.2574 10.0073C14.3826 8.88209 15.9087 8.24995 17.5 8.24995C19.0913 8.24995 20.6174 8.88209 21.7426 10.0073C22.8679 11.1325 23.5 12.6586 23.5 14.2499C23.5 16.2391 22.7098 18.1467 21.3033 19.5532C19.8968 20.9598 17.9891 21.7499 16 21.7499C14.0109 21.7499 12.1032 20.9598 10.6967 19.5532C9.29019 18.1467 8.50001 16.2391 8.50001 14.2499C8.49724 12.2951 9.13473 10.3932 10.315 8.83495C10.4299 8.66546 10.5783 8.5213 10.7511 8.41135C10.9238 8.30139 11.1173 8.22797 11.3195 8.19561C11.5216 8.16325 11.7283 8.17263 11.9268 8.22317C12.1252 8.27371 12.3112 8.36435 12.4733 8.4895C12.6353 8.61465 12.7701 8.77166 12.8692 8.95085C12.9683 9.13005 13.0296 9.32764 13.0495 9.53144C13.0693 9.73525 13.0472 9.94096 12.9845 10.1359C12.9218 10.3308 12.8199 10.5109 12.685 10.6649" stroke="#F7F6F3" stroke-width="2" stroke-linecap="round" stroke-linejoin="round"/>
</g>
<defs>
<filter id="filter0_dd_237_344" x="0" y="0" width="32" height="32" filterUnits="userSpaceOnUse" color-interpolation-filters="sRGB">
<feFlood flood-opacity="0" result="BackgroundImageFix"/>
<feColorMatrix in="SourceAlpha" type="matrix" values="0 0 0 0 0 0 0 0 0 0 0 0 0 0 0 0 0 0 127 0" result="hardAlpha"/>
<feMorphology radius="1" operator="dilate" in="SourceAlpha" result="effect1_dropShadow_237_344"/>
<feOffset dy="1"/>
<feGaussianBlur stdDeviation="1.5"/>
<feColorMatrix type="matrix" values="0 0 0 0 0 0 0 0 0 0 0 0 0 0 0 0 0 0 0.15 0"/>
<feBlend mode="normal" in2="BackgroundImageFix" result="effect1_dropShadow_237_344"/>
<feColorMatrix in="SourceAlpha" type="matrix" values="0 0 0 0 0 0 0 0 0 0 0 0 0 0 0 0 0 0 127 0" result="hardAlpha"/>
<feOffset dy="1"/>
<feGaussianBlur stdDeviation="1"/>
<feColorMatrix type="matrix" values="0 0 0 0 0 0 0 0 0 0 0 0 0 0 0 0 0 0 0.3 0"/>
<feBlend mode="normal" in2="effect1_dropShadow_237_344" result="effect2_dropShadow_237_344"/>
<feBlend mode="normal" in="SourceGraphic" in2="effect2_dropShadow_237_344" result="shape"/>
</filter>
</defs>
</svg>
