<svg width="32" height="32" viewBox="0 0 32 32" fill="none" xmlns="http://www.w3.org/2000/svg">
<g filter="url(#filter0_dd_218_621)">
<rect x="4" y="3" width="24" height="24" rx="12" fill="#1E6944"/>
<g clip-path="url(#clip0_218_621)">
<path d="M16 13.5C16 12.3065 15.5259 11.1619 14.682 10.318C13.8381 9.47411 12.6935 9 11.5 9H9.25V10.5C9.25 11.6935 9.72411 12.8381 10.568 13.682C11.4119 14.5259 12.5565 15 13.75 15H16" stroke="#F7F6F3" stroke-width="1.5" stroke-linecap="round" stroke-linejoin="round"/>
<path d="M16 16.5C16 15.3065 16.4741 14.1619 17.318 13.318C18.1619 12.4741 19.3065 12 20.5 12H22.75V12.75C22.75 13.9435 22.2759 15.0881 21.432 15.932C20.5881 16.7759 19.4435 17.25 18.25 17.25H16" stroke="#F7F6F3" stroke-width="1.5" stroke-linecap="round" stroke-linejoin="round"/>
<path d="M16 21V13.5" stroke="#F7F6F3" stroke-width="1.5" stroke-linecap="round" stroke-linejoin="round"/>
</g>
</g>
<defs>
<filter id="filter0_dd_218_621" x="0" y="0" width="32" height="32" filterUnits="userSpaceOnUse" color-interpolation-filters="sRGB">
<feFlood flood-opacity="0" result="BackgroundImageFix"/>
<feColorMatrix in="SourceAlpha" type="matrix" values="0 0 0 0 0 0 0 0 0 0 0 0 0 0 0 0 0 0 127 0" result="hardAlpha"/>
<feMorphology radius="1" operator="dilate" in="SourceAlpha" result="effect1_dropShadow_218_621"/>
<feOffset dy="1"/>
<feGaussianBlur stdDeviation="1.5"/>
<feColorMatrix type="matrix" values="0 0 0 0 0 0 0 0 0 0 0 0 0 0 0 0 0 0 0.15 0"/>
<feBlend mode="normal" in2="BackgroundImageFix" result="effect1_dropShadow_218_621"/>
<feColorMatrix in="SourceAlpha" type="matrix" values="0 0 0 0 0 0 0 0 0 0 0 0 0 0 0 0 0 0 127 0" result="hardAlpha"/>
<feOffset dy="1"/>
<feGaussianBlur stdDeviation="1"/>
<feColorMatrix type="matrix" values="0 0 0 0 0 0 0 0 0 0 0 0 0 0 0 0 0 0 0.3 0"/>
<feBlend mode="normal" in2="effect1_dropShadow_218_621" result="effect2_dropShadow_218_621"/>
<feBlend mode="normal" in="SourceGraphic" in2="effect2_dropShadow_218_621" result="shape"/>
</filter>
<clipPath id="clip0_218_621">
<rect width="18" height="18" fill="white" transform="translate(7 6)"/>
</clipPath>
</defs>
</svg>
